<svg width="160" height="160" viewBox="0 0 160 160" fill="none" xmlns="http://www.w3.org/2000/svg">
  <rect width="160" height="160" rx="32" fill="#FDF2F8"/>
  <circle cx="80" cy="60" r="33" fill="#A36B4B"/>
  <path d="M45 58C45 35 61 22 80 22C99 22 115 35 115 58V73H45V58Z" fill="#2B1D16"/>
  <ellipse cx="67" cy="61" rx="4" ry="5" fill="#2B1D16"/>
  <ellipse cx="93" cy="61" rx="4" ry="5" fill="#2B1D16"/>
  <circle cx="80" cy="71" r="3" fill="#BE123C"/>
  <path d="M70 79C74 83 86 83 90 79" stroke="#6C432A" stroke-width="4" stroke-linecap="round"/>
  <path d="M35 154C39 114 56 96 80 96C104 96 121 114 125 154H35Z" fill="#0F766E"/>
  <path d="M44 154C50 126 62 110 80 110C98 110 110 126 116 154H44Z" fill="#EC4899" opacity="0.78"/>
</svg>
