<svg width="160" height="160" viewBox="0 0 160 160" fill="none" xmlns="http://www.w3.org/2000/svg">
  <rect width="160" height="160" rx="32" fill="#F5F3FF"/>
  <circle cx="80" cy="60" r="33" fill="#A56E4D"/>
  <path d="M46 57C46 34 61 23 80 23C99 23 114 34 114 57V76H46V57Z" fill="#1E1B4B"/>
  <ellipse cx="67" cy="61" rx="4" ry="5" fill="#312E81"/>
  <ellipse cx="93" cy="61" rx="4" ry="5" fill="#312E81"/>
  <circle cx="80" cy="71" r="3" fill="#DC2626"/>
  <path d="M70 79C75 84 85 84 90 79" stroke="#6B452C" stroke-width="4" stroke-linecap="round"/>
  <path d="M116 61C119 77 118 98 107 110" stroke="#1E1B4B" stroke-width="7" stroke-linecap="round"/>
  <path d="M35 154C39 114 56 96 80 96C104 96 121 114 125 154H35Z" fill="#7C3AED"/>
  <path d="M48 154C53 127 63 111 80 111C97 111 107 127 112 154H48Z" fill="#F9A8D4" opacity="0.8"/>
</svg>
