<svg width="160" height="160" viewBox="0 0 160 160" fill="none" xmlns="http://www.w3.org/2000/svg">
  <rect width="160" height="160" rx="32" fill="#F3F4F6"/>
  <circle cx="80" cy="60" r="34" fill="#936240"/>
  <path d="M44 54C47 31 65 20 80 20C95 20 113 31 116 54V67H44V54Z" fill="#111827"/>
  <circle cx="68" cy="61" r="10" stroke="#374151" stroke-width="3"/>
  <circle cx="92" cy="61" r="10" stroke="#374151" stroke-width="3"/>
  <path d="M78 61H82" stroke="#374151" stroke-width="3" stroke-linecap="round"/>
  <ellipse cx="68" cy="61" rx="3" ry="4" fill="#111827"/>
  <ellipse cx="92" cy="61" rx="3" ry="4" fill="#111827"/>
  <path d="M67 79C72 84 88 84 93 79" stroke="#5F3C26" stroke-width="4" stroke-linecap="round"/>
  <path d="M65 75C71 80 89 80 95 75" stroke="#1F2937" stroke-width="5" stroke-linecap="round"/>
  <path d="M33 154C38 114 55 96 80 96C105 96 122 114 127 154H33Z" fill="#1F2937"/>
  <path d="M62 101H98L91 154H69L62 101Z" fill="#22C55E" opacity="0.9"/>
</svg>
